<?xml version="1.0" encoding="utf-8"?>
<!-- Generator: Adobe Illustrator 26.3.1, SVG Export Plug-In . SVG Version: 6.00 Build 0)  -->
<svg version="1.1" id="Capa_1" xmlns="http://www.w3.org/2000/svg" xmlns:xlink="http://www.w3.org/1999/xlink" x="0px" y="0px"
	 viewBox="0 0 425.2 425.2" style="enable-background:new 0 0 425.2 425.2;" xml:space="preserve">
<style type="text/css">
	.st0{fill:#ffffff;}
</style>
<path class="st0" d="M424.84,224.4c-0.26,4.49-0.66,8.98-1.21,13.44c-4.38,35.86-17.99,71.61-40.01,100.39
	c-32.69,42.72-79.72,72.69-132.8,82.56c-7.02,1.3-14.1,2.25-21.22,2.82c-54.65,4.38-110.75-13.39-152.91-48.43
	C36.4,341.7,9.28,292.84,1.97,240.98c-6.79-48.18,4.13-98.91,29.62-140.28c27.68-44.93,72.11-78.69,122.96-92.88
	c53.34-14.89,112.5-8.39,161.03,18.43c44.79,24.75,80.58,66.9,97.6,115.21C422.52,167.95,426.46,196.36,424.84,224.4 M211.96,7.72
	c-0.39,0-0.78,0-1.17,0c-18.2,0.05-36.46,2.52-53.98,7.48c-51.77,14.68-96.9,50.55-123.14,97.49c-8.63,15.45-15.33,32.04-19.7,49.19
	c-9.65,37.94-7.9,78.72,4.69,115.76c13.09,38.49,37.87,72.86,70.33,97.33c42.71,32.2,97.76,46.14,150.74,39.51
	c18.75-2.35,37.19-7.27,54.54-14.79c62.19-26.97,109.02-86.74,120.32-153.58c11.3-66.84-13.27-138.68-63.13-184.6
	C313.9,26.93,262.9,7.88,211.96,7.72"/>
<path class="st0" d="M221.88,321.95c-1.2-0.39-88.21-28.65-89.96-29.23v-1.7c0-12.42-0.21-86.68-0.41-101.18
	c-0.01-0.51,0.02-1.02,0.05-1.53c0-0.09,0.08-0.18,0.22-0.45c1.17,0.24,2.4,0.45,3.61,0.76c0.94,0.24,81.92,24.7,84.28,25.43
	c0.6,0.18,1.2,0.41,1.75,0.71c0.22,0.12,0.38,0.47,0.43,0.73c0.07,0.45,0.04,0.92,0.04,1.38c0,34.36,0,68.72,0,103.07
	C221.88,320.54,221.88,321.14,221.88,321.95"/>
<path class="st0" d="M224.92,214.71c1.27-0.36,2.51-0.7,3.74-1.06c2.41-0.71,86.95-25.32,88-25.64c0.27-0.09,0.6-0.01,1.01-0.01
	c0.03,0.46,0.09,0.91,0.09,1.35c0,34.01,0.01,68.02,0,102.03c0,1.52-0.03,1.46-1.57,1.8c-1.22,0.27-90.37,28.09-91.26,28.22V214.71z
	 M239.27,257.36c-0.04,0.37-0.04,31.73-0.01,47.12c0,0.04,0.05,0.09,0.09,0.12c0.04,0.03,0.09,0.05,0.14,0.08
	c1.8-0.62,65.54-21.2,66.25-21.42c1.64-0.51,1.77-0.64,1.77-2.33c0-14.72,0-45.16,0-45.79
	C304.99,235.89,242.43,256.41,239.27,257.36"/>
<path class="st0" d="M185.85,161.61c0.05-0.01,0.1-0.03,0.15-0.04c-3.95,4.44-8.18,10.14-6.26,15.76c1.11,3.25,4.05,5.49,7,7.25
	c6.19,3.69,13.07,6.13,20.1,7.75c19.05,4.38,40.7,2.16,55.49-10.62c1.94-1.68,3.81-3.62,4.57-6.08c1.56-5.05-1.98-10.13-5.31-14.24
	c23.16,5.8,46.2,12.07,69.11,18.82c-5.96,2.39-12.14,4.15-18.32,5.91c-27.3,7.78-54.61,15.57-81.91,23.35
	c-2.39,0.68-4.83,1.37-7.32,1.36c-2.52-0.01-4.97-0.73-7.38-1.45l-63.55-18.9c-5.3-1.57-10.59-3.15-15.89-4.72
	c-2.65-0.79-5.29-1.57-7.94-2.36c-1.62-0.48-6.22-0.99-7.23-2.35c-1.5-2.03,2.75-2.6,3.79-2.89c2.63-0.75,5.25-1.49,7.88-2.23
	c5.26-1.48,10.52-2.94,15.79-4.39C161.02,168.13,173.42,164.82,185.85,161.61"/>
<path class="st0" d="M213.59,146.09c0.07,0.02,0.13,0.04,0.2,0.07c-0.94,1.55-0.15,3.68,1.29,4.79c1.43,1.11,3.3,1.43,5.1,1.65
	c2.37,0.28,4.77,0.44,7.13,0.13c1.71-0.22,3.47-0.72,4.73-1.91c1.26-1.18,1.86-3.19,1.03-4.7c1.33-0.42,2.74,0.27,3.96,0.94
	c9.61,5.34,19.09,11.58,25.36,20.61c1.06,1.53,2.05,3.23,2.05,5.08c0.01,2.69-2.02,4.93-4.11,6.63
	c-12.3,10.02-30.32,12.65-45.61,10.87c-7.03-0.82-13.94-2.66-20.42-5.49c-3.51-1.53-6.92-3.36-9.83-5.84
	c-0.74-0.63-1.47-1.34-1.83-2.24c-0.45-1.11-0.29-2.38,0.03-3.54c0.98-3.53,3.32-6.5,5.79-9.21c6.39-6.99,14.01-12.85,22.41-17.24
	C211.71,146.27,212.69,145.84,213.59,146.09"/>
<path class="st0" d="M119.92,299.42c-0.15-0.95,0.27-1.21,1-1.32c2.41-0.37,4.82-0.73,7.2-1.24c0.74-0.16,1.41-0.58,2.25-0.63
	c2.04-0.1,3.99,0.04,5.87,0.94c1.16,0.56,83.46,27.27,85.65,28.04c0.97,0.34,1.99,0.31,3.03-0.1c1.21-0.48,85.02-26.82,87.04-27.48
	c1.1-0.36,5.8-2.06,5.8-1.44c1.53,0,3.65,0.47,8.71,1.36c0.79,0.57,1.72,0.48,2.61,0.64c0.31,0.05,0.55,0.5,0.99,0.92
	c-1.02,0.41-1.85,0.73-2.67,1.07c-2.69,1.11-93.87,31.79-95.72,32.5c-1.84,0.71-3.67,1.42-5.6,1.85c-2.47,0.54-4.89,0.5-7.17-0.78
	c-0.22-0.12-91.74-31.92-94.9-33.01C122.67,300.28,121.32,299.87,119.92,299.42"/>
<path class="st0" d="M216.76,105.9c1.18,0.25,2.2,0.49,3.23,0.67c0.94,0.16,1.89,0.3,2.84,0.37c2.1,0.15,4.14-0.08,6.09-0.94
	c0.71-0.31,1.16-0.01,1.24,0.74c0.04,0.35,0.01,0.71,0.01,1.07c0,12.38-0.04,24.75,0.04,37.13c0.01,1.9-1.23,3.15-2.61,3.85
	c-2.03,1.03-4.21,0.81-6.28,0.56c-1.67-0.2-3.38-0.86-4.28-2.71c-0.32-0.65-0.38-1.24-0.39-1.88c-0.01-7.06-0.01-14.12-0.01-21.17
	c0-0.33,0.19-1.52-0.03-1.76c-0.27-0.3-1.48,0-1.86,0.03c-1.48,0.13-2.97,0.29-4.44,0.48c-2.88,0.37-5.74,0.85-8.58,1.43
	c-3.03,0.62-6.03,1.37-9,2.24c-2.73,0.8-6.04,1.47-8.43,3.04c-1.28,0.84-2.79,1.33-4.15,2.05c-2.95,1.56-5.87,3.17-8.8,4.75
	c-2.37,1.28-4.68,2.67-7.14,3.79c-1.32,0.6-2.56,1.41-3.82,2.14c-0.88,0.5-1.73,1.05-2.61,1.52c-2.03,1.09-4.1,2.1-6.12,3.22
	c-3.63,2.02-7.4,3.76-11.24,5.32c-1.86,0.76-3.83,1.73-5.79,2.16c-1.94,0.43-3.99,0.5-5.95,0.86c-1.78,0.32-3.52,0.1-5.27,0.26
	c-1.44,0.13-2.95-0.51-4.42-0.84c-1.43-0.33-2.74-0.96-4.09-1.55c-1.48-0.65-2.42-1.76-3.13-2.96c-1.06-1.83-1.56-3.91-1.43-6.08
	c0.01-0.15,0.07-0.29,0.13-0.5c0.29,0.02,0.62-0.03,0.87,0.09c1.17,0.53,2.37,0.72,3.65,0.48c0.89-0.17,1.82,0,2.66-0.55
	c0.39-0.25,0.83,0.01,1.12,0.49c2.48,4.12,7.87,2.83,11.87,2.06c5.16-0.99,10.09-2.94,14.65-5.51c3.31-1.86,6.56-3.85,9.94-5.59
	c1.7-0.88,3.32-1.91,4.99-2.86c1.39-0.79,2.78-1.57,4.18-2.33c1.43-0.77,2.89-1.49,4.32-2.27c5.64-3.08,11.65-5.76,17.79-7.86
	c3.1-1.06,6.25-1.98,9.44-2.74c3.13-0.75,6.52-0.96,9.58-1.85c1.83-0.54,3.73-0.39,5.48-0.86c1.61-0.43,3.16-0.42,4.75-0.53
	c0.74-0.05,0.89-0.55,0.89-1.18c-0.01-1.54-0.01-3.07,0.01-4.6C216.66,107.1,216.71,106.6,216.76,105.9"/>
<path class="st0" d="M113.93,140.26c-2.75-0.09-5.29-0.78-8.03-1.28c-0.89-0.16-1.75-0.8-2.5-1.38c-1.01-0.78-0.92-3.03-0.15-4.11
	c0.78-1.1,1.4-2.32,1.98-3.54c0.46-0.98,0.73-2.04,1.12-3.06c0.75-1.95-0.07-3.55-1.17-5.05c-1.01-1.38-2.49-2.1-4.02-2.79
	c-1.87-0.83-4.52-2.31-5.45-4.32c-0.81-1.75-0.78-3.6-0.79-5.5c-0.01-2.2,0.44-3.59,1.98-5.15c1.51-1.53,3.27-2.79,5.27-3.61
	c3.4-1.4,7.25-2,10.9-2.26c5.4-0.39,12.42,0.3,16.85,3.76c2.75,2.15,4.51,4.79,4.6,8.42c0.05,1.9-0.5,3.45-1.73,4.88
	c-1.48,1.71-3.14,3.07-5.26,3.94c-1.28,0.52-2.55,1.23-3.6,2.12c-0.96,0.81-1.36,2.05-1.53,3.36c-0.36,2.91,0.8,5.32,2.36,7.63
	c0.55,0.82,1.1,1.64,1.58,2.51c0.46,0.83-0.45,2.54-1.55,3.08c-2.99,1.45-6.3,2.22-9.61,2.35
	C114.76,140.27,114.34,140.27,113.93,140.26"/>
<path class="st0" d="M223.48,89.15c1.12,0,2.25-0.02,3.38,0c2.48,0.06,4.36,1.31,5.88,3.13c0.63,0.76,1.13,1.68,1.51,2.6
	c0.24,0.58,0.35,1.35,0.17,1.93c-0.67,2.2-1.74,4.14-3.83,5.39c-1.45,0.87-3.02,1.26-4.65,1.52c-0.99,0.16-2.01,0.42-2.99,0.35
	c-1.23-0.09-2.43-0.53-3.66-0.72c-1.23-0.19-2.32-0.61-3.33-1.33c-1.54-1.1-2.94-2.38-3.43-4.25c-0.51-1.93-0.11-3.76,1.22-5.35
	c1.27-1.51,2.85-2.51,4.74-3.05c0.43-0.12,0.88-0.22,1.33-0.24C221.02,89.13,222.25,89.15,223.48,89.15"/>
<path class="st0" d="M303.87,239.43v41.18c-3.47,1.18-57.92,18.6-61.44,19.69v-40.87C242.89,259.22,302.26,239.76,303.87,239.43
	 M279.35,259.78c-0.88,0.2-1.85,0.23-2.61,0.65c-1.52,0.82-3.12,1.67-4.12,3.15c-1.27,1.88-2.55,3.78-2.18,6.26
	c0.2,1.37,1.53,2.72,2.92,2.82c3.51,0.25,6.11-1.33,8.08-4.11c0.58-0.81,1.14-1.67,1.54-2.58c0.61-1.4,0.55-2.91-0.07-4.28
	C282.25,260.26,280.99,259.65,279.35,259.78"/>
</svg>
